HIERARCHY
ROOT Bip001_Pelvis
{
  OFFSET 1.9202 94.1302 -9.65566
  CHANNELS 6 Xposition Yposition Zposition Zrotation Xrotation Yrotation
  JOINT Bip001_Spine
  {
    OFFSET 1.44608e-005 10.4157 -0.0118244
    CHANNELS 3 Zrotation Xrotation Yrotation
    JOINT Bip001_L_Thigh
    {
      OFFSET 11.2582 -10.4157 0.0118432
      CHANNELS 3 Zrotation Xrotation Yrotation
      JOINT Bip001_L_Calf
      {
        OFFSET -0.720717 -44.8687 0.366937
        CHANNELS 3 Zrotation Xrotation Yrotation
        JOINT Bip001_L_Foot
        {
          OFFSET -0.664439 -41.3745 -3.62995
          CHANNELS 3 Zrotation Xrotation Yrotation
          JOINT Bip001_L_Toe0
          {
            OFFSET 0.0541047 -10.4146 13.4033
            CHANNELS 3 Zrotation Xrotation Yrotation
            End Site
            {
              OFFSET -1.04503e-005 0 7.70137
            }
          }
        }
      }
    }
    JOINT Bip001_R_Thigh
    {
      OFFSET -11.2582 -10.4156 0.0118122
      CHANNELS 3 Zrotation Xrotation Yrotation
      JOINT Bip001_R_Calf
      {
        OFFSET 0.72059 -44.8687 0.36676
        CHANNELS 3 Zrotation Xrotation Yrotation
        JOINT Bip001_R_Foot
        {
          OFFSET 0.664321 -41.3745 -3.62979
          CHANNELS 3 Zrotation Xrotation Yrotation
          JOINT Bip001_R_Toe0
          {
            OFFSET -0.05417 -10.4146 13.4033
            CHANNELS 3 Zrotation Xrotation Yrotation
            End Site
            {
              OFFSET -1.04873e-005 0 7.70137
            }
          }
        }
      }
    }
    JOINT Bip001_Spine1
    {
      OFFSET 1.90638e-005 14.8539 1.10727
      CHANNELS 3 Zrotation Xrotation Yrotation
      JOINT Bip001_Spine2
      {
        OFFSET 2.28934e-005 14.7848 -1.7233
        CHANNELS 3 Zrotation Xrotation Yrotation
        JOINT Bip001_Neck
        {
          OFFSET 2.24514e-005 15.6905 -0.498826
          CHANNELS 3 Zrotation Xrotation Yrotation
          JOINT Bip001_L_Clavicle
          {
            OFFSET 6.17691 -0.000591152 0.00852867
            CHANNELS 3 Zrotation Xrotation Yrotation
            JOINT Bip001_L_UpperArm
            {
              OFFSET 11.773 -0.0611878 0.00197697
              CHANNELS 3 Zrotation Xrotation Yrotation
              JOINT Bip001_L_Forearm
              {
                OFFSET 26.4515 0.0817569 -2.19579
                CHANNELS 3 Zrotation Xrotation Yrotation
                JOINT Bip001_L_Hand
                {
                  OFFSET 32.8677 0.156744 1.67112
                  CHANNELS 3 Zrotation Xrotation Yrotation
                  JOINT Bip001_L_Finger0
                  {
                    OFFSET 6.16267 -2.25226 6.01673
                    CHANNELS 3 Zrotation Xrotation Yrotation
                    End Site
                    {
                      OFFSET 4.30498 -1.46663 0.618147
                    }
                  }
                  JOINT Bip001_L_Finger1
                  {
                    OFFSET 11.2957 -0.718375 -0.201963
                    CHANNELS 3 Zrotation Xrotation Yrotation
                    End Site
                    {
                      OFFSET 6.31952 -0.405163 -0.0802302
                    }
                  }
                }
              }
            }
          }
          JOINT Bip001_R_Clavicle
          {
            OFFSET -6.17691 -0.000574027 0.00851165
            CHANNELS 3 Zrotation Xrotation Yrotation
            JOINT Bip001_R_UpperArm
            {
              OFFSET -11.773 -0.0611516 0.00194365
              CHANNELS 3 Zrotation Xrotation Yrotation
              JOINT Bip001_R_Forearm
              {
                OFFSET -26.4514 0.0822335 -2.19736
                CHANNELS 3 Zrotation Xrotation Yrotation
                JOINT Bip001_R_Hand
                {
                  OFFSET -32.8677 0.156816 1.67144
                  CHANNELS 3 Zrotation Xrotation Yrotation
                  JOINT Bip001_R_Finger0
                  {
                    OFFSET -6.1627 -2.25224 6.01673
                    CHANNELS 3 Zrotation Xrotation Yrotation
                    End Site
                    {
                      OFFSET -4.30499 -1.46661 0.618137
                    }
                  }
                  JOINT Bip001_R_Finger1
                  {
                    OFFSET -11.2958 -0.718342 -0.201995
                    CHANNELS 3 Zrotation Xrotation Yrotation
                    End Site
                    {
                      OFFSET -6.31952 -0.405145 -0.080248
                    }
                  }
                }
              }
            }
          }
          JOINT Bip001_Head
          {
            OFFSET 1.11782e-005 11.4912 2.09908
            CHANNELS 3 Zrotation Xrotation Yrotation
            End Site
            {
              OFFSET 2.95144e-005 21.2823 -2.83069e-005
            }
          }
        }
      }
    }
  }
}
MOTION
Frames:	9
Frame Time:	0.0333333
1.9202 94.1302 -9.65566 -2.51006 -6.48993 5.3693 -0.343291 3.39722 0.561759 5.47541 -7.00791 -6.19926 -0.199985 21.6913 -3.50647 -1.0224 -9.97997 2.96689 -1.06793e-007 -2.13318e-007 2.6855e-008 3.66584 -6.65258 6.48627 -0.127081 14.684 -3.01609 -0.92134 -3.33878 -5.13472 4.30472e-007 9.0515e-008 8.12002e-009 1.86228 6.81875 0.722521 1.86331 6.81977 0.708764 5.32608 0.732969 6.89948 -32.3167 6.82451 -13.7923 -32.7056 58.353 -16.0805 -2.49373 0.650742 -25.8293 11.3307 12.2962 1.01088 -8.82781e-032 3.18055e-015 1.59028e-015 -3.18055e-015 3.18056e-015 1.59028e-015 18.0746 -2.78627 -9.62886 31.5986 46.8092 26.2477 1.76587 0.144544 12.4854 -8.022 4.13511 -5.44514 -8.82781e-032 3.18055e-015 1.59028e-015 4.77083e-015 3.18056e-015 -0 -10.1008 26.0334 14.3532 
1.96094 94.1324 -9.75486 -2.54763 -6.4232 5.09146 -0.341651 3.39724 0.534086 5.43536 -7.08422 -6.20028 -0.202549 21.6492 -3.49518 -0.964213 -9.70587 3.46053 -1.06793e-007 -2.13318e-007 2.6855e-008 3.71306 -6.82884 6.76311 -0.123285 14.7537 -3.01706 -0.84784 -3.37797 -4.98715 4.30472e-007 9.0515e-008 8.12002e-009 1.86856 6.81882 0.669586 1.86956 6.81985 0.656118 5.3616 0.580054 6.84335 -32.267 6.91737 -13.6653 -32.6228 58.4254 -16.2338 -2.50015 0.659226 -25.968 11.4242 12.4542 1.13524 -3.18055e-015 1.59028e-015 -7.95139e-016 -3.18055e-015 3.18056e-015 -7.95139e-016 18.0368 -2.61832 -9.62182 31.7018 46.889 26.2732 1.75913 0.14323 12.3594 -7.49148 3.75122 -5.34023 -1.59028e-015 0 -3.18055e-015 1.59028e-015 0 -4.77083e-015 -10.0608 25.9329 14.2606 
1.9601 94.146 -9.85361 -2.57241 -6.36141 4.83073 -0.391733 3.39725 0.503984 5.42791 -7.15856 -6.18758 -0.205199 21.6972 -3.47282 -1.02172 -10.1188 3.69049 -1.06793e-007 -2.13318e-007 2.6855e-008 3.74131 -6.97762 6.88855 -0.12235 14.7779 -2.99394 -0.876481 -3.26901 -4.95955 4.30472e-007 9.0515e-008 8.12002e-009 1.87704 6.81892 0.598204 1.87811 6.81994 0.584148 5.34172 0.394408 6.68288 -32.1249 6.95632 -13.434 -32.8234 58.4591 -16.1044 -2.53105 0.675697 -26.3166 11.407 12.9322 1.38815 -3.18055e-015 0 -7.95139e-016 -6.36111e-015 -1.59028e-015 -0 18.1193 -2.38682 -9.47417 31.7492 47.1482 26.2231 1.75227 0.138399 12.432 -6.98687 3.29501 -5.35376 4.77083e-015 0 1.59028e-015 6.36111e-015 0 1.59028e-015 -9.44997 25.7905 13.5409 
1.9472 94.1378 -9.98782 -2.56748 -6.2478 4.48963 -0.467645 3.39726 0.480512 5.44775 -7.29917 -6.06144 -0.202851 21.7647 -3.4353 -1.0723 -10.483 4.02885 -1.06793e-007 -2.13318e-007 2.6855e-008 3.8031 -7.35182 7.15392 -0.114768 15.0856 -2.94968 -0.818411 -3.26142 -4.85951 4.30472e-007 9.0515e-008 8.12002e-009 1.87953 6.81899 0.538593 1.88048 6.82001 0.523902 5.13345 -0.0138072 6.27798 -31.9977 7.06389 -12.8411 -33.3355 58.7076 -15.3242 -2.61715 0.72261 -27.2922 11.9475 13.4964 1.94584 -3.18055e-015 1.59028e-015 -1.19271e-015 -3.18055e-015 0 -3.97569e-016 18.2689 -1.84339 -9.07176 32.3503 47.0552 25.9399 1.74314 0.137684 12.3811 -6.33575 3.23281 -5.44233 -1.59028e-015 6.36111e-015 -0 -1.59028e-015 3.18056e-015 1.59028e-015 -9.01021 25.3628 12.2804 
1.96576 94.1899 -10.1522 -2.64988 -6.10095 4.02979 -0.468997 3.39726 0.487455 5.51279 -7.36704 -5.79851 -0.198303 21.5874 -3.36847 -1.1425 -10.4117 4.15581 -1.06793e-007 -2.13318e-007 2.6855e-008 3.92406 -7.70462 8.04928 -0.116372 15.2848 -2.891 -0.803805 -3.63568 -5.62894 4.30472e-007 9.0515e-008 8.12002e-009 1.81732 6.80965 0.570729 1.81828 6.81079 0.556384 5.37084 -0.324235 5.4442 -32.1642 6.87676 -11.9656 -34.2357 57.7562 -14.5201 -2.7163 0.779063 -28.4273 12.1636 14.3804 2.41531 -7.72434e-032 -1.59028e-015 -2.78299e-015 -6.36111e-015 -1.59028e-015 -7.95139e-016 18.1564 -1.23806 -8.26387 32.7036 47.2225 25.4721 1.76218 0.156586 12.5517 -6.39904 3.09629 -5.25481 -1.59028e-015 0 -7.95139e-016 1.59028e-015 3.18056e-015 -1.59028e-015 -9.34016 24.4838 11.116 
1.96903 94.1723 -10.3348 -2.68073 -5.90782 3.4948 -0.526035 3.39725 0.511115 5.59377 -7.56332 -5.35554 -0.191332 21.6089 -3.28997 -1.1583 -10.4266 4.1811 -1.06793e-007 -2.13318e-007 2.6855e-008 3.90896 -8.22653 7.95865 -0.113974 15.638 -2.805 -0.690861 -3.72462 -5.13504 4.30472e-007 9.0515e-008 8.12002e-009 1.72506 6.79855 0.632045 1.72601 6.7999 0.617586 5.96491 -0.554631 4.41806 -32.5651 6.52371 -10.9906 -35.3146 55.954 -13.6977 -2.83662 0.851123 -29.823 12.2407 15.2861 2.58223 1.27222e-014 1.59028e-015 -7.95139e-016 6.36111e-015 1.59028e-015 -0 17.7171 -0.652437 -7.33357 32.966 47.5757 25.2092 1.77515 0.167154 12.6942 -6.2482 1.4942 -5.39323 -4.41391e-032 3.18055e-015 7.95139e-016 1.59028e-015 0 -0 -8.66155 23.769 9.88413 
1.96798 94.1351 -10.4545 -2.7869 -5.84949 2.99305 -0.575019 3.39726 0.485586 5.78403 -7.6855 -4.79232 -0.181963 21.7883 -3.19067 -1.1337 -10.5233 4.06358 -1.06793e-007 -2.13318e-007 2.6855e-008 3.83947 -8.41039 7.34684 -0.109298 15.6405 -2.69887 -0.647592 -3.44565 -4.39257 4.30472e-007 9.0515e-008 8.12002e-009 1.71755 6.82951 0.576532 1.71854 6.83078 0.561565 5.971 -0.810075 3.74958 -32.5661 6.36193 -10.2704 -36.2154 53.968 -12.7377 -2.97223 0.937196 -31.4207 12.496 15.7652 2.43489 3.18055e-015 -1.59028e-015 7.95139e-016 0 0 -0 17.6865 -0.18818 -6.72466 33.1129 48.0385 25.1352 1.76598 0.162815 12.609 -6.32036 1.03966 -5.3267 -3.18055e-015 -3.18055e-015 -2.38542e-015 -3.18055e-015 -3.18056e-015 -3.18055e-015 -7.70217 23.2761 8.65402 
2.00074 94.1107 -10.6469 -2.84791 -5.6725 2.417 -0.610227 3.3973 0.399337 5.78344 -7.95708 -4.63401 -0.172031 21.9477 -3.07116 -1.06943 -10.5617 4.51162 -1.06793e-007 -2.13318e-007 2.6855e-008 3.72933 -8.72536 6.94768 -0.104321 15.6058 -2.56998 -0.622442 -3.1619 -3.69181 4.30472e-007 9.0515e-008 8.12002e-009 1.71779 6.82535 0.411912 1.71887 6.82619 0.396748 5.94808 -1.13631 3.275 -32.6238 6.35138 -9.58889 -36.9335 52.4437 -11.7549 -3.10371 1.02589 -32.9981 12.9977 15.9689 2.09124 6.36111e-015 -1.59028e-015 -0 9.54166e-015 1.59028e-015 -0 17.5393 0.325768 -6.20135 32.8626 49.1453 25.5172 1.74818 0.154538 12.4651 -6.49736 -0.228588 -5.42111 3.18055e-015 3.18055e-015 1.59028e-015 1.59028e-015 9.54167e-015 2.38542e-015 -6.41067 22.8177 7.28738 
2.00619 94.0997 -10.7882 -3.02154 -5.5881 1.87507 -0.60192 3.41801 0.346199 5.87045 -8.10291 -4.61622 -0.16121 22.0633 -2.92054 -1.05321 -10.4198 4.80629 -1.06793e-007 -2.13318e-007 2.6855e-008 3.67735 -8.8558 6.21218 -0.0975099 15.4293 -2.41687 -0.687641 -2.91492 -2.97118 4.30472e-007 9.0515e-008 8.12002e-009 1.78859 6.86829 0.305926 1.78968 6.86884 0.291192 5.45065 -1.38291 2.86887 -32.2067 6.32099 -9.15641 -37.0654 52.1122 -11.3442 -3.20914 1.10087 -34.2849 13.842 15.7992 1.70595 9.54166e-015 0 -2.38542e-015 6.36111e-015 1.59028e-015 7.95139e-016 17.9377 0.675916 -5.84228 32.7358 49.989 25.6896 1.72735 0.141239 12.2912 -6.73104 -1.17325 -5.53891 -8.82781e-032 3.18055e-015 1.59028e-015 3.18055e-015 9.54167e-015 7.95139e-016 -5.93318 22.2497 6.52019 
